<svg width="34" height="32" viewBox="0 0 34 32" fill="none" xmlns="http://www.w3.org/2000/svg">
<path d="M32.404 0.518095C30.981 -0.406731 29.0601 -0.015394 28.0287 1.33646L27.6728 1.79898C27.6016 1.90568 27.4237 1.90568 27.3527 1.79898L26.8902 1.22976C25.7163 -0.264295 23.4751 -0.442158 22.0878 0.945145C20.9493 2.04783 20.8784 3.79102 21.6965 5.10715H23.6885L24.6133 3.54189C24.72 3.36397 24.9334 3.25727 25.1468 3.25727C25.3602 3.25727 25.5381 3.36397 25.6803 3.54189L27.3877 6.42321L27.9924 5.42717C28.0991 5.24926 28.3125 5.14256 28.5259 5.14256H30.2333C30.5534 5.14256 30.838 5.42717 30.838 5.74726C30.838 6.06736 30.5534 6.35197 30.2333 6.35197H28.8815L27.9567 7.91723C27.85 8.09514 27.6366 8.20184 27.4232 8.20184C27.2098 8.20184 27.0319 8.09514 26.8897 7.91723L25.1823 5.03591L24.5776 6.03194C24.4709 6.20986 24.2575 6.31655 24.0441 6.31655H22.6213L26.5699 11.2256C27.0679 11.8304 27.9926 11.8304 28.4906 11.2256L33.2218 5.28501C34.3605 3.79096 34.0402 1.58533 32.404 0.518082L32.404 0.518095Z" fill="#FFE400"/>
<path d="M8.28577 19.1583L5.68903 26.8064L9.17508 26.5931L11.3096 20.3323L10.029 20.0832C9.31731 19.941 8.74808 19.6209 8.28583 19.1584L8.28577 19.1583Z" fill="#FFE400"/>
<path d="M18.6272 4.08927C18.9932 5.59768 18.067 7.11676 16.5588 7.48277C15.0504 7.84852 13.5311 6.92224 13.1653 5.4141C12.7996 3.90569 13.7256 2.38661 15.234 2.02059C16.7422 1.65484 18.2615 2.58113 18.6272 4.08927Z" fill="#FFE400"/>
<path d="M5.65338 14.4982C6.32932 14.8183 7.11192 14.5694 7.43201 13.8935L8.78384 11.2256L10.7046 10.5854L9.10393 16.3481C8.99723 16.7749 9.03271 17.2374 9.28184 17.6287C9.53097 18.02 9.88654 18.2689 10.3133 18.3759L15.2224 19.3716L13.5859 23.2848C13.2301 24.1029 13.6214 25.0279 14.4398 25.3835C14.7598 25.5257 15.1157 25.5257 15.4358 25.4547C15.9338 25.348 16.3251 24.9922 16.5385 24.4942L18.9218 18.767C19.0998 18.3402 19.064 17.8065 18.8506 17.4152C18.6372 16.9884 18.2104 16.7038 17.7479 16.5971L14.3328 15.8857L15.6847 12.2572L17.3211 14.3917C17.6412 14.8185 18.1749 14.9964 18.7085 14.8897C18.8152 14.8542 18.9219 14.8185 19.0643 14.7475L21.8744 13.1822C22.5146 12.8264 22.7637 12.0083 22.3724 11.3681C22.0166 10.7279 21.1985 10.4788 20.5583 10.8701L18.7796 11.8661L17.3211 9.98077C16.8943 9.41155 16.2896 8.98473 15.6492 8.77136L13.0524 7.84653C12.3053 7.56192 11.4517 7.56192 10.6691 7.81105L7.43189 8.8783C7.07606 8.98499 6.82719 9.23412 6.64929 9.55424L5.04859 12.7202C4.72849 13.3599 4.97737 14.1782 5.65329 14.4983L5.65338 14.4982Z" fill="#FFE400"/>
<path d="M30.91 14.2849C30.8033 13.7869 30.3053 13.5023 29.8073 13.6089L22.8706 15.4943C22.4081 15.6365 22.1235 16.099 22.2304 16.5615L22.4796 17.7354C22.5863 18.198 23.0488 18.518 23.5111 18.4114L25.4676 18.0556L26.2857 27.2333L1.59829 28.7986C0.744483 28.8341 0.0687931 29.5812 0.104239 30.435C0.139722 31.2887 0.851392 32 1.70495 32H28.171C28.6335 32 29.0603 31.8221 29.3449 31.4666C29.665 31.1465 29.8074 30.684 29.7717 30.2572L28.6333 17.5577L30.5898 17.2019C31.0878 17.1307 31.4079 16.6327 31.3012 16.1346L30.91 14.2849Z" fill="#FFE400"/>
</svg>
