<svg width="32" height="32" viewBox="0 0 32 32" fill="none" xmlns="http://www.w3.org/2000/svg">
<path d="M27.7658 4.01186C27.6683 4.08999 27.5668 4.16403 27.4731 4.24215C27.3289 4.37091 27.1454 4.43733 26.9619 4.43733C26.7433 4.43733 26.5288 4.34368 26.3726 4.16811C26.0917 3.84418 26.1227 3.34846 26.4507 3.06756C26.5912 2.94261 26.7474 2.82964 26.8996 2.71232C26.1347 1.69372 25.2255 0.776651 24.1914 0H7.80889C6.77092 0.776651 5.86556 1.69372 5.10068 2.71232C5.25285 2.82556 5.40502 2.94261 5.54956 3.06756C5.87349 3.34848 5.9086 3.84038 5.62768 4.16811C5.47171 4.34368 5.25312 4.43733 5.03454 4.43733C4.85515 4.43733 4.67168 4.37091 4.52333 4.24215C4.42968 4.16403 4.33223 4.08999 4.23451 4.01186C3.01285 6.08391 2.34156 8.46849 2.34156 10.9268C2.34156 14.0213 3.35612 16.9443 5.27221 19.3755C5.30732 19.4186 5.33454 19.4654 5.35796 19.5122H8.3863C7.9181 18.9931 7.47307 18.4233 7.05168 17.803C6.80968 17.4478 6.90332 16.9599 7.25856 16.7183C7.6176 16.4763 8.10162 16.5699 8.34329 16.929C8.44483 17.0773 8.55018 17.2216 8.65552 17.3661C10.6807 20.137 13.2719 21.6589 15.9997 21.6589C18.7276 21.6589 21.3187 20.137 23.3439 17.3661C23.4493 17.2219 23.5508 17.0773 23.6562 16.929C23.8982 16.5699 24.3819 16.4763 24.7371 16.7183C25.0962 16.9603 25.1898 17.4481 24.9478 17.803C24.5265 18.4234 24.0776 18.9931 23.6094 19.5122H26.6416C26.665 19.4654 26.6922 19.4185 26.7273 19.3755C28.6439 16.9444 29.6584 14.0217 29.6584 10.9268C29.6584 8.46849 28.9834 6.08391 27.7658 4.01186ZM6.60281 5.39332C6.98145 5.19052 7.45347 5.33479 7.66036 5.71344C7.79293 5.96333 7.91406 6.22084 8.0273 6.48215C8.19498 6.88012 8.0077 7.33692 7.61354 7.50458C7.51201 7.54759 7.41074 7.56692 7.30921 7.56692C7.00487 7.56692 6.71606 7.38753 6.58733 7.09082C6.4975 6.87632 6.39215 6.65774 6.283 6.45085C6.07992 6.07221 6.22035 5.5961 6.60281 5.39332ZM8.02322 13.8769L7.77333 14.6184C7.66417 14.9424 7.35957 15.1492 7.03563 15.1492C6.94989 15.1492 6.86796 15.1337 6.78194 15.1062C6.37607 14.9696 6.15749 14.5248 6.29413 14.1151L6.54402 13.3774C6.68448 12.9677 7.12547 12.7491 7.53517 12.8896C7.9413 13.0262 8.16368 13.471 8.02322 13.8769ZM8.7568 10.6379C8.73339 11.0555 8.38986 11.3756 7.97639 11.3756H7.93338C7.5041 11.3522 7.17638 10.9852 7.19979 10.5559C7.20769 10.4155 7.2115 10.275 7.2115 10.1346C7.2115 10.0371 7.20769 9.94346 7.20361 9.84574C7.18809 9.41266 7.52373 9.05362 7.95301 9.03404C8.38229 9.01446 8.74924 9.35416 8.76471 9.78727C8.76852 9.90051 8.77261 10.0176 8.77261 10.1346C8.77261 10.3023 8.7647 10.4702 8.7568 10.6379ZM16 18.3417C15.5669 18.3417 15.2196 17.9905 15.2196 17.5613C15.2196 17.491 15.2313 17.4287 15.2468 17.3661C15.3325 17.0305 15.6371 16.7808 16 16.7808C16.3629 16.7808 16.6672 17.0307 16.7533 17.3661C16.7688 17.4284 16.7805 17.4908 16.7805 17.561C16.7805 17.9903 16.4293 18.3417 16.0001 18.3417L16 18.3417ZM23.2431 10.6379C23.2314 10.4702 23.2276 10.3023 23.2276 10.1346C23.2276 10.0175 23.2314 9.90047 23.2355 9.78341C23.251 9.35413 23.6063 9.0223 24.0472 9.03401C24.4765 9.05361 24.8122 9.41647 24.7966 9.84571C24.7928 9.94316 24.7887 10.0368 24.7887 10.1345C24.7887 10.275 24.7925 10.4154 24.8004 10.5559C24.8238 10.9852 24.4961 11.3521 24.0627 11.3756H24.0197C23.6098 11.3756 23.2625 11.0555 23.2431 10.6379ZM25.2137 15.1062C25.1317 15.1334 25.046 15.1492 24.9638 15.1492C24.6398 15.1492 24.3355 14.9424 24.2261 14.6184L23.9762 13.8769C23.8357 13.471 24.0543 13.0262 24.464 12.8896C24.8698 12.7491 25.3146 12.9677 25.4551 13.3774L25.705 14.1189C25.8419 14.5248 25.6236 14.9696 25.2137 15.1062ZM25.7172 6.45052C25.604 6.65741 25.5027 6.87599 25.4088 7.09049C25.2839 7.3872 24.9951 7.56659 24.6907 7.56659C24.5892 7.56659 24.4879 7.54699 24.3864 7.50425C23.9884 7.33657 23.8049 6.87599 23.9726 6.48182C24.0818 6.22022 24.2067 5.96271 24.3396 5.71311C24.5424 5.33447 25.0146 5.19019 25.3971 5.39299C25.7758 5.59579 25.92 6.07186 25.7172 6.45052Z" fill="#FFE400"/>
<path d="M16 23.2194C13.8849 23.2194 11.8555 22.4741 10.0527 21.073H5.38916C5.38535 21.8107 5.43979 22.5443 5.56092 23.2545L5.57644 23.3365C5.58025 23.3637 5.58814 23.3912 5.59195 23.4184C7.59382 23.4301 9.27577 23.7385 10.6769 24.195C13.4787 25.1083 15.1608 26.6185 15.9997 27.5862C16.8387 26.6185 18.5207 25.1083 21.3225 24.195C22.7236 23.7385 24.4053 23.4301 26.4075 23.4184C26.4113 23.3912 26.4153 23.3637 26.423 23.3403L26.4347 23.2545C26.5596 22.5443 26.6141 21.8107 26.6102 21.073H21.9434C20.1444 22.4738 18.115 23.2194 16 23.2194Z" fill="#FFE400"/>
<path d="M16.7805 29.112V31.9999H23.5199C23.7267 31.4536 23.9453 30.9034 24.1677 30.3454C24.8662 28.5931 25.5764 26.7903 26.0566 24.9834C19.8945 25.1432 17.311 28.3471 16.7807 29.112H16.7805Z" fill="#FFE400"/>
<path d="M5.94358 24.9832C6.42349 26.7901 7.13368 28.593 7.83242 30.349C8.05101 30.9032 8.26959 31.4571 8.48029 31.9997L15.2197 32V29.1121C14.6927 28.351 12.1094 25.1433 5.94378 24.9832L5.94358 24.9832Z" fill="#FFE400"/>
</svg>
