<svg width="32" height="32" viewBox="0 0 32 32" fill="none" xmlns="http://www.w3.org/2000/svg">
<path d="M18.7588 2.20691H19.8622V4.41379H18.7588V2.20691Z" fill="#FFE400"/>
<path d="M16.5519 2.20691H17.6553V4.41379H16.5519V2.20691Z" fill="#FFE400"/>
<path d="M16.0001 6.62065H27.0346C27.339 6.62065 27.5863 6.37287 27.5863 6.06893C27.5863 5.76499 27.339 5.51721 27.0346 5.51721H16.0001C15.6957 5.51721 15.4484 5.76499 15.4484 6.06893C15.4484 6.37287 15.6957 6.62065 16.0001 6.62065Z" fill="#FFE400"/>
<path d="M20.9656 2.20691H22.0691V4.41379H20.9656V2.20691Z" fill="#FFE400"/>
<path d="M23.1725 2.20691H24.276V4.41379H23.1725V2.20691Z" fill="#FFE400"/>
<path d="M25.3794 2.20691H26.4828V4.41379H25.3794V2.20691Z" fill="#FFE400"/>
<path d="M25.3794 0.551721C25.3794 0.247783 25.1321 0 24.8277 0H18.2071C17.9026 0 17.6553 0.247783 17.6553 0.551721V1.10344H25.3794V0.551721Z" fill="#FFE400"/>
<path d="M31.9357 13.793H13.7933V12.6896H31.582C31.0032 11.4869 29.8695 10.5953 28.4724 10.3625L25.3791 9.84651V7.72412H17.655V9.84651L14.5614 10.3623C13.1651 10.595 12.0306 11.4872 11.4519 12.6893L12.6896 12.6896V13.793H11.0985C11.0571 14.0314 11.0344 14.2763 11.0344 14.5258C11.0344 14.7415 11.0514 14.961 11.0852 15.1785L12.9379 27.0345H27.5859V28.138H13.1106L13.1565 28.4303C13.4791 30.4988 15.2331 32 17.3269 32H25.708C27.8018 32 29.5558 30.4988 29.8785 28.4303L29.9238 28.138H28.6896V27.0345H30.0964L31.9491 15.1773C31.9829 14.961 31.9999 14.7415 31.9999 14.5258C31.9999 14.2763 31.9772 14.0314 31.9358 13.793H31.9357ZM25.1688 24.0658C23.927 25.3072 22.2959 25.9278 20.6651 25.9278C19.0344 25.9278 17.4033 25.3071 16.1614 24.0658L15.7713 23.6756L24.7785 14.6684L25.1687 15.0585C27.6519 17.5418 27.6519 21.5821 25.1687 24.0658H25.1688Z" fill="#FFE400"/>
<path d="M24.107 16.901C24.572 17.6143 24.8274 18.4525 24.8274 19.3104C24.8274 21.7441 22.8474 23.7241 20.4137 23.7241C19.5558 23.7241 18.7176 23.4687 18.0043 23.0037L17.3528 23.6552C19.4191 25.3302 22.4678 25.2066 24.3897 23.2854C26.3113 21.3643 26.4342 18.315 24.7594 16.2493L24.107 16.901Z" fill="#FFE400"/>
<path d="M23.7243 19.3102C23.7243 18.7452 23.5757 18.1925 23.3038 17.7036L18.8073 22.2001C19.2967 22.472 19.849 22.6206 20.4139 22.6206C22.2395 22.6206 23.7243 21.1358 23.7243 19.3102Z" fill="#FFE400"/>
<path d="M3.3106 17.6551H6.01353C5.75688 16.3978 4.64311 15.4482 3.3106 15.4482H0.607666C0.863822 16.7056 1.97808 17.6551 3.3106 17.6551Z" fill="#FFE400"/>
<path d="M10.7547 20.2119C9.72864 19.3897 8.47563 18.8917 7.16903 18.7818C7.14489 15.4723 6.90056 12.1372 4.41389 12.1372V13.2406C5.87201 13.2406 6.04541 16.0904 6.06634 18.7859C2.67424 19.0689 0.00012207 21.9155 0.00012207 25.3782C0.00012207 29.0289 2.97008 31.9989 6.62078 31.9989C8.87224 31.9989 10.9171 30.8794 12.1478 29.0058C12.1163 28.8723 12.0872 28.7375 12.0656 28.5996L10.7547 20.2119ZM6.62078 30.8964C3.57868 30.8964 1.10356 28.4212 1.10356 25.3791H2.20701C2.20701 27.8129 4.18702 29.7929 6.62078 29.7929V30.8964ZM6.62078 22.0688C5.38334 22.0688 4.41389 21.3417 4.41389 20.4137H5.51733C5.51733 20.6388 5.94713 20.9654 6.62078 20.9654C7.29442 20.9654 7.72422 20.6388 7.72422 20.4137H8.82766C8.82766 21.3417 7.85821 22.0688 6.62078 22.0688Z" fill="#FFE400"/>
</svg>
